<svg xmlns="http://www.w3.org/2000/svg" viewBox="0 0 32 32">
  <!-- Background -->
  <rect x="0" y="0" width="32" height="32" rx="4" fill="black"/>
  
  <!-- Zimbabwe flag colors as diagonal stripes -->
  <path d="M0 32L32 0" stroke="#009900" stroke-width="2" />
  <path d="M0 26L26 0" stroke="#FFD200" stroke-width="2" />
  <path d="M0 20L20 0" stroke="#FF0000" stroke-width="2" />
  <path d="M0 14L14 0" stroke="#FFFFFF" stroke-width="2" />
  <path d="M0 8L8 0" stroke="#000000" stroke-width="2" />
  
  <!-- Stylized "C" in white with black outline -->
  <path d="M22 10c-1.5-1.8-3.7-2.8-6-2.8-4.4 0-8 3.6-8 8s3.6 8 8 8c2.3 0 4.5-1 6-2.8" 
        stroke="#000000" 
        stroke-width="3.5" 
        stroke-linecap="round" 
        fill="none"/>
  
  <path d="M22 10c-1.5-1.8-3.7-2.8-6-2.8-4.4 0-8 3.6-8 8s3.6 8 8 8c2.3 0 4.5-1 6-2.8" 
        stroke="#FFFFFF" 
        stroke-width="2.5" 
        stroke-linecap="round" 
        fill="none"/>
  
  
  <!-- Stylized "z" tail -->
  <path d="M22 10L24 16L22 23" 
        stroke="#000000" 
        stroke-width="3.5" 
        stroke-linecap="round" 
        fill="none"/>
  
  <path d="M22 10L24 16L22 23" 
        stroke="#FFFFFF" 
        stroke-width="2.5" 
        stroke-linecap="round" 
        fill="none"/>
</svg>